<svg width="200" height="78" viewBox="0 0 200 78" fill="none" xmlns="http://www.w3.org/2000/svg">
<g clip-path="url(#clip0_155_3994)">
<path d="M14.8475 30.5078H22.3322L15.3763 50.5214C14.2915 53.5858 12.7593 55.796 10.7797 57.1519C8.8 58.5079 6.23729 59.118 3.09153 58.9824V52.6367C4.52881 52.6367 5.61356 52.4604 6.34576 52.1078C7.07797 51.7553 7.67458 51.118 8.13559 50.196L0 30.5078H7.5661L11.6746 42.3045L14.8475 30.5078Z" fill="#6D6D6D"/>
<path d="M29.3448 43.1579C30.0227 44.8121 31.5414 45.6392 33.9007 45.6392C35.3651 45.6392 36.599 45.1647 37.6024 44.2155L42.4838 47.6324C40.477 50.1545 37.5617 51.4155 33.738 51.4155C30.2939 51.4155 27.5278 50.4121 25.4397 48.4053C23.3787 46.3714 22.3481 43.8087 22.3481 40.7172C22.3481 37.6528 23.3651 35.0901 25.399 33.029C27.4329 30.968 30.0227 29.9375 33.1685 29.9375C36.2058 29.9375 38.7143 30.9544 40.6939 32.9883C42.6736 35.0223 43.6634 37.5714 43.6634 40.6358C43.6634 41.5308 43.5685 42.3714 43.3787 43.1579H29.3448ZM29.2634 38.4799H37.0736C36.5312 36.5816 35.2567 35.6324 33.2498 35.6324C31.1617 35.6324 29.8329 36.5816 29.2634 38.4799Z" fill="#6D6D6D"/>
<path d="M46.5635 50.8473V21.1523H53.316V50.8473H46.5635Z" fill="#6D6D6D"/>
<path d="M57.2095 50.8473V21.1523H63.962V50.8473H57.2095Z" fill="#6D6D6D"/>
<path d="M77.7006 51.4155C74.6904 51.4155 72.1277 50.385 70.0125 48.324C67.8972 46.2358 66.8396 43.6867 66.8396 40.6765C66.8396 37.6663 67.8972 35.1308 70.0125 33.0697C72.1277 30.9816 74.6904 29.9375 77.7006 29.9375C80.7379 29.9375 83.3006 30.9816 85.3888 33.0697C87.504 35.1308 88.5616 37.6663 88.5616 40.6765C88.5616 43.6867 87.504 46.2358 85.3888 48.324C83.3006 50.385 80.7379 51.4155 77.7006 51.4155ZM77.7006 44.907C78.8938 44.907 79.8701 44.5138 80.6294 43.7274C81.4159 42.9409 81.8091 41.924 81.8091 40.6765C81.8091 39.4291 81.4159 38.4121 80.6294 37.6257C79.8701 36.8392 78.8938 36.446 77.7006 36.446C76.5345 36.446 75.5582 36.8392 74.7718 37.6257C74.0125 38.4121 73.6328 39.4291 73.6328 40.6765C73.6328 41.924 74.0125 42.9409 74.7718 43.7274C75.5582 44.5138 76.5345 44.907 77.7006 44.907Z" fill="#6D6D6D"/>
<path d="M113.598 30.5078H120.757L114.533 50.8468H107.944L105.015 40.5146L102.086 50.8468H95.4962L89.2725 30.5078H96.4318L99.1165 41.5723L102.167 30.5078H107.862L110.913 41.5723L113.598 30.5078Z" fill="#6D6D6D"/>
<path d="M140.854 45.11C139.58 45.11 138.549 44.7032 137.763 43.8896C136.976 43.0761 136.583 42.0049 136.583 40.6761C136.583 39.3473 136.976 38.2761 137.763 37.4625C138.549 36.649 139.58 36.2422 140.854 36.2422C142.129 36.2422 143.159 36.649 143.946 37.4625C144.732 38.2761 145.125 39.3473 145.125 40.6761C145.125 42.0049 144.732 43.0761 143.946 43.8896C143.159 44.7032 142.129 45.11 140.854 45.11Z" fill="#FFDE1A"/>
<path d="M168.566 43.7306C167.807 44.517 166.831 44.9102 165.638 44.9102C164.472 44.9102 163.495 44.517 162.709 43.7306C161.949 42.9441 161.57 41.9272 161.57 40.6797C161.57 39.4323 161.949 38.4153 162.709 37.6289C163.495 36.8424 164.472 36.4492 165.638 36.4492C166.831 36.4492 167.807 36.8424 168.566 37.6289C169.353 38.4153 169.746 39.4323 169.746 40.6797C169.746 41.9272 169.353 42.9441 168.566 43.7306Z" fill="#FFDE1A"/>
<path fill-rule="evenodd" clip-rule="evenodd" d="M161.017 77.9661C182.547 77.9661 200 60.5129 200 38.9831C200 17.4532 182.547 0 161.017 0C139.487 0 122.034 17.4532 122.034 38.9831C122.034 60.5129 139.487 77.9661 161.017 77.9661ZM151.878 22.3728H145.125V32.3797C143.742 30.7526 141.817 29.9391 139.349 29.9391C136.637 29.9391 134.359 30.9695 132.515 33.0306C130.698 35.0644 129.79 37.6132 129.79 40.678C129.79 43.7427 130.698 46.3051 132.515 48.3658C134.359 50.4 136.637 51.417 139.349 51.417C141.817 51.417 143.742 50.6034 145.125 48.9763V50.8475H151.878V22.3728ZM157.95 48.3254C160.065 50.3864 162.627 51.417 165.638 51.417C168.675 51.417 171.238 50.3864 173.326 48.3254C175.441 46.2373 176.499 43.6878 176.499 40.678C176.499 37.6681 175.441 35.1322 173.326 33.0711C171.238 30.9831 168.675 29.9391 165.638 29.9391C162.627 29.9391 160.065 30.9831 157.95 33.0711C155.834 35.1322 154.777 37.6681 154.777 40.678C154.777 43.6878 155.834 46.2373 157.95 48.3254ZM187.451 36.9763H191.681V30.5085H187.451V24.8134L180.698 26.8476V30.5085H177.647V36.9763H180.698V43.0373C180.698 46.2641 181.512 48.5017 183.139 49.7492C184.793 50.9695 187.641 51.3356 191.681 50.8475V44.7458C190.163 44.8271 189.078 44.7593 188.427 44.5424C187.776 44.3254 187.451 43.7695 187.451 42.8742V36.9763Z" fill="#FFDE1A"/>
</g>
<defs>
<clipPath id="clip0_155_3994">
<rect width="200" height="77.9661" fill="white"/>
</clipPath>
</defs>
</svg>
